<svg viewBox="0 0 512 512" xmlns="http://www.w3.org/2000/svg" xmlns:xlink="http://www.w3.org/1999/xlink"><linearGradient id="a" gradientTransform="matrix(1 0 0 -1 0 -16402)" gradientUnits="userSpaceOnUse" x1="0" x2="512" y1="-16658" y2="-16658"><stop offset="0" stop-color="#31d8ff"/><stop offset="1" stop-color="#ff80ff"/></linearGradient><path d="m512 256c0 141.386719-114.613281 256-256 256s-256-114.613281-256-256 114.613281-256 256-256 256 114.613281 256 256zm0 0" fill="url(#a)"/><g fill="#fff"><path d="m408.5 251.613281h-133.113281c-8.285157 0-15-6.714843-15-15v-133.113281c0-8.285156 6.714843-15 15-15h107.265625c22.523437 0 40.847656 18.324219 40.847656 40.847656v107.265625c0 8.285157-6.714844 15-15 15zm-118.113281-30h103.113281v-92.265625c0-5.980468-4.867188-10.847656-10.847656-10.847656h-92.265625zm0 0"/><path d="m236.613281 251.613281h-133.113281c-8.285156 0-15-6.714843-15-15v-107.265625c0-22.523437 18.324219-40.847656 40.847656-40.847656h107.265625c8.285157 0 15 6.714844 15 15v133.113281c0 8.285157-6.714843 15-15 15zm-118.113281-30h103.113281v-103.113281h-92.265625c-5.980468 0-10.847656 4.867188-10.847656 10.847656zm0 0"/><path d="m382.652344 423.5h-107.265625c-8.285157 0-15-6.714844-15-15v-133.113281c0-8.285157 6.714843-15 15-15h133.113281c8.285156 0 15 6.714843 15 15v107.265625c0 22.523437-18.324219 40.847656-40.847656 40.847656zm-92.265625-30h92.265625c5.980468 0 10.847656-4.867188 10.847656-10.847656v-92.265625h-103.113281zm0 0"/><path d="m236.613281 423.5h-107.265625c-22.523437 0-40.847656-18.324219-40.847656-40.847656v-107.265625c0-8.285157 6.714844-15 15-15h133.113281c8.285157 0 15 6.714843 15 15v133.113281c0 8.285156-6.714843 15-15 15zm-118.113281-133.113281v92.265625c0 5.980468 4.867188 10.847656 10.847656 10.847656h92.265625v-103.113281zm0 0"/></g></svg>